<svg xmlns="http://www.w3.org/2000/svg" version="1.1" xmlns:xlink="http://www.w3.org/1999/xlink" width="1500" height="1500" viewBox="0 0 1500 1500"><rect width="1500" height="1500" fill="#ffffff"></rect><g transform="matrix(0.6666666666666666,0,0,0.6666666666666666,249.3345374108776,681.6817703227164)"><svg viewBox="0 0 396 54" data-background-color="#ffffff" preserveAspectRatio="xMidYMid meet" height="204" width="1500" xmlns="http://www.w3.org/2000/svg" xmlns:xlink="http://www.w3.org/1999/xlink"><g id="tight-bounds" transform="matrix(1,0,0,1,0.2635231852924562,0.126355901274394)"><svg viewBox="0 0 395.52 53.699247573776496" height="53.699247573776496" width="395.52"><g><svg viewBox="0 0 477.1408967258927 64.78081295726496" height="53.699247573776496" width="395.52"><g transform="matrix(1,0,0,1,81.62089672589276,2.7228851111111148)"><svg viewBox="0 0 395.5199999999999 59.33504273504273" height="59.33504273504273" width="395.5199999999999"><g id="textblocktransform"><svg viewBox="0 0 395.5199999999999 59.33504273504273" height="59.33504273504273" width="395.5199999999999" id="textblock"><g><svg viewBox="0 0 395.5199999999999 59.33504273504273" height="59.33504273504273" width="395.5199999999999"><g transform="matrix(1,0,0,1,0,0)"><svg width="395.5199999999999" viewBox="2.76 -37.84 274.2 41.14000000000001" height="59.33504273504273" data-palette-color="#38803a"><g class="wordmark-text-0" data-fill-palette-color="primary" id="text-0"><path d="M23.41-3.86L17.41-11.74 22.75-11.74 26.59-6.76 28.27-4.64 34.33 3.3 28.78 3.3 24.76-1.98 23.41-3.86ZM19.19 0.49L19.19 0.49Q14.48 0.49 10.75-1.75 7.03-3.98 4.9-8.17 2.76-12.35 2.76-18.16L2.76-18.16Q2.76-24 4.9-28.19 7.03-32.37 10.75-34.62 14.48-36.87 19.19-36.87L19.19-36.87Q23.9-36.87 27.6-34.62 31.3-32.37 33.44-28.19 35.57-24 35.57-18.16L35.57-18.16Q35.57-12.35 33.44-8.17 31.3-3.98 27.6-1.75 23.9 0.49 19.19 0.49ZM19.19-4.59L19.19-4.59Q22.29-4.59 24.74-6.14 27.2-7.69 28.63-10.73 30.05-13.77 30.05-18.16L30.05-18.16Q30.05-22.61 28.63-25.65 27.2-28.69 24.74-30.24 22.29-31.79 19.19-31.79L19.19-31.79Q16.06-31.79 13.6-30.22 11.13-28.66 9.7-25.62 8.28-22.58 8.28-18.16L8.28-18.16Q8.28-13.77 9.7-10.74 11.13-7.71 13.6-6.15 16.06-4.59 19.19-4.59ZM51.34 0.34L51.34 0.34Q48.56 0.34 46.46-0.83 44.36-2 43.2-4.3 42.04-6.59 42.04-9.96L42.04-9.96 42.04-27.29 47.41-27.29 47.41-10.62Q47.41-7.67 48.96-6.01 50.51-4.35 53.17-4.35L53.17-4.35Q55-4.35 56.43-5.14 57.86-5.93 58.69-7.46 59.52-8.98 59.52-11.13L59.52-11.13 59.52-27.29 64.89-27.29 64.89 0 59.76 0 59.74-6.69 60.25-6.69Q59.06-2.98 56.76-1.32 54.47 0.34 51.34 0.34ZM77.49 0L72.11 0 72.11-27.29 77.49-27.29 77.49 0ZM74.82-31.47L74.82-31.47Q73.43-31.47 72.44-32.4 71.45-33.33 71.45-34.64L71.45-34.64Q71.45-35.99 72.44-36.91 73.43-37.84 74.82-37.84L74.82-37.84Q76.22-37.84 77.22-36.91 78.22-35.99 78.22-34.64L78.22-34.64Q78.22-33.33 77.22-32.4 76.22-31.47 74.82-31.47ZM96.18 0.56L96.18 0.56Q92.33 0.56 89.47-1.2 86.61-2.95 85.03-6.13 83.44-9.3 83.44-13.5L83.44-13.5Q83.44-17.75 85.03-20.94 86.61-24.12 89.47-25.88 92.33-27.64 96.18-27.64L96.18-27.64Q98.31-27.64 100.16-27.09 102.02-26.54 103.52-25.5 105.02-24.46 106.06-22.96 107.1-21.46 107.61-19.58L107.61-19.58 102.51-18.36Q102.24-19.41 101.68-20.28 101.12-21.14 100.32-21.78 99.53-22.41 98.49-22.75 97.45-23.1 96.21-23.1L96.21-23.1Q93.74-23.1 92.12-21.79 90.5-20.48 89.7-18.31 88.91-16.14 88.91-13.5L88.91-13.5Q88.91-10.89 89.7-8.73 90.5-6.57 92.12-5.27 93.74-3.98 96.21-3.98L96.21-3.98Q97.48-3.98 98.53-4.33 99.58-4.69 100.41-5.33 101.24-5.98 101.8-6.9 102.36-7.81 102.6-8.91L102.6-8.91 107.68-7.69Q107.19-5.76 106.14-4.24 105.1-2.71 103.59-1.64 102.09-0.56 100.21 0 98.33 0.56 96.18 0.56ZM123.4-14.09L118.52-9.2 118.52-15.77 119.42-15.77 130.19-27.29 136.64-27.29 124.31-14.09 123.4-14.09ZM118.94 0L113.56 0 113.56-36.38 118.94-36.38 118.94 0ZM137.39 0L130.75 0 121.06-12.89 124.77-16.7 137.39 0ZM147.57 0L141.93 0 141.93-36.38 148.35-36.38 162.05-14.72Q162.73-13.65 163.59-12.16 164.44-10.67 165.39-8.8 166.34-6.93 167.27-4.74L167.27-4.74 166.59-4.74Q166.37-6.81 166.26-8.85 166.15-10.89 166.1-12.67 166.05-14.45 166.05-15.67L166.05-15.67 166.05-36.38 171.69-36.38 171.69 0 165.25 0 152.97-19.36Q151.99-20.95 151.05-22.56 150.11-24.17 148.97-26.28 147.84-28.39 146.2-31.42L146.2-31.42 147.08-31.42Q147.2-28.74 147.33-26.4 147.45-24.07 147.51-22.28 147.57-20.48 147.57-19.41L147.57-19.41 147.57 0ZM190.81 0.56L190.81 0.56Q186.97 0.56 184.1-1.2 181.24-2.95 179.65-6.13 178.06-9.3 178.06-13.5L178.06-13.5Q178.06-17.75 179.65-20.94 181.24-24.12 184.1-25.88 186.97-27.64 190.81-27.64L190.81-27.64Q194.66-27.64 197.53-25.88 200.4-24.12 201.99-20.94 203.57-17.75 203.57-13.5L203.57-13.5Q203.57-9.3 201.99-6.13 200.4-2.95 197.53-1.2 194.66 0.56 190.81 0.56ZM190.81-3.98L190.81-3.98Q193.3-3.98 194.92-5.29 196.54-6.59 197.34-8.75 198.13-10.91 198.13-13.5L198.13-13.5Q198.13-16.11 197.34-18.3 196.54-20.48 194.92-21.79 193.3-23.1 190.81-23.1L190.81-23.1Q188.34-23.1 186.73-21.79 185.12-20.48 184.32-18.31 183.53-16.14 183.53-13.5L183.53-13.5Q183.53-10.91 184.32-8.75 185.12-6.59 186.73-5.29 188.34-3.98 190.81-3.98ZM206.4-27.29L221.2-27.29 221.2-22.92 206.4-22.92 206.4-27.29ZM210.38-6.93L210.38-33.79 215.75-33.79 215.75-7.37Q215.75-5.74 216.45-4.97 217.15-4.2 218.73-4.2L218.73-4.2Q219.15-4.2 219.83-4.3 220.51-4.39 221-4.49L221-4.49 221.96-0.2Q221.1 0.1 220.12 0.23 219.15 0.37 218.2 0.37L218.2 0.37Q214.48 0.37 212.43-1.55 210.38-3.47 210.38-6.93L210.38-6.93ZM238.31 0.56L238.31 0.56Q234.28 0.56 231.35-1.17 228.42-2.91 226.85-6.05 225.27-9.2 225.27-13.45L225.27-13.45Q225.27-17.65 226.82-20.85 228.37-24.05 231.21-25.84 234.04-27.64 237.85-27.64L237.85-27.64Q240.19-27.64 242.36-26.87 244.54-26.1 246.27-24.46 248-22.83 249.02-20.23 250.03-17.63 250.03-13.92L250.03-13.92 250.03-12.01 228.28-12.01 228.28-16.02 247.27-16.02 244.76-14.7Q244.76-17.21 243.97-19.13 243.19-21.04 241.67-22.12 240.14-23.19 237.85-23.19L237.85-23.19Q235.58-23.19 233.96-22.09 232.35-21 231.51-19.2 230.67-17.41 230.67-15.28L230.67-15.28 230.67-12.55Q230.67-9.74 231.63-7.8 232.6-5.86 234.33-4.87 236.06-3.88 238.36-3.88L238.36-3.88Q239.87-3.88 241.09-4.31 242.31-4.74 243.21-5.6 244.1-6.47 244.56-7.74L244.56-7.74 249.61-6.54Q248.95-4.44 247.4-2.83 245.85-1.22 243.55-0.33 241.24 0.56 238.31 0.56ZM265.7 0.56L265.7 0.56Q262.75 0.56 260.44-0.29 258.13-1.15 256.65-2.82 255.18-4.49 254.69-6.91L254.69-6.91 259.74-7.96Q260.3-5.83 261.84-4.81 263.38-3.78 265.75-3.78L265.75-3.78Q268.34-3.78 269.87-4.87 271.41-5.96 271.41-7.47L271.41-7.47Q271.41-8.79 270.47-9.64 269.53-10.5 267.58-10.91L267.58-10.91 262.99-11.96Q259.18-12.82 257.33-14.7 255.47-16.58 255.47-19.51L255.47-19.51Q255.47-21.95 256.84-23.78 258.21-25.61 260.57-26.62 262.94-27.64 266.04-27.64L266.04-27.64Q269-27.64 271.1-26.78 273.2-25.93 274.5-24.39 275.81-22.85 276.37-20.83L276.37-20.83 271.56-19.78Q271.05-21.22 269.78-22.3 268.51-23.39 266.09-23.39L266.09-23.39Q263.87-23.39 262.38-22.39 260.89-21.39 260.89-19.85L260.89-19.85Q260.89-18.48 261.88-17.64 262.87-16.8 265.11-16.28L265.11-16.28 269.51-15.31Q273.29-14.45 275.12-12.62 276.96-10.79 276.96-7.93L276.96-7.93Q276.96-5.44 275.53-3.53 274.1-1.61 271.57-0.52 269.04 0.56 265.7 0.56Z" fill="#000000" data-fill-palette-color="primary"></path></g></svg></g></svg></g></svg></g></svg></g><g><svg viewBox="0 0 67.61331717717482 64.78081295726496" height="64.78081295726496" width="67.61331717717482"><g><svg xmlns="http://www.w3.org/2000/svg" xmlns:xlink="http://www.w3.org/1999/xlink" version="1.1" x="0" y="0" viewBox="0.0003994487639006467 0.5047986842321485 23.99961633122264 22.994207672507187" style="enable-background:new 0 0 24 24;" xml:space="preserve" id="icon-0" width="67.61331717717482" height="64.78081295726496" class="icon-icon-0" data-fill-palette-color="accent"><g fill="#38803a" data-fill-palette-color="accent"><g fill="#38803a" data-fill-palette-color="accent"><path d="M12.423 11.392C13.684 12.443 14.041 13.636 14.135 14.072L21.5 6.707 17.793 3 10.444 10.349A5.2 5.2 0 0 1 12.423 11.392M23.232 4.975A2.6 2.6 0 0 0 24 3.121 2.624 2.624 0 0 0 19.525 1.269L18.5 2.294 22.207 6.001zM11.783 12.16C11.071 11.566 10.385 11.338 9.922 11.248L9.014 14.878A0.5 0.5 0 0 0 9.62 15.484L13.253 14.576A0.5 0.5 0 0 1 13.175 14.37C13.17 14.326 13.003 13.176 11.783 12.16M21.662 7.959L20.429 9.192 18.268 21.44 18.094 22.425 9.475 20.989 5.464 20.32H5.463L1.08 19.589 3.906 3.574 14.104 5.274 16.369 3.009 9.855 3.552 3.582 2.506A0.496 0.496 0 0 0 3.008 2.912L0.008 19.912A0.5 0.5 0 0 0 0.418 20.492L4.904 21.24 5 23.026A0.5 0.5 0 0 0 5.554 23.496L13.286 22.637 18.417 23.492A0.5 0.5 0 0 0 18.992 23.086L19.187 21.982 23.555 21.497A0.5 0.5 0 0 0 23.999 20.972L23.191 6.43z" fill="#000000" data-fill-palette-color="accent"></path></g></g></svg></g></svg></g></svg></g><defs></defs></svg><rect width="395.52" height="53.699247573776496" fill="none" stroke="none" visibility="hidden"></rect></g></svg></g></svg>